# xmcd
#
# Track frame offsets:
#	150
#	17852
#	35095
#	68980
#	83792
#	113850
#	131657
#	152007
#	191827
#	206207
#
# Disc length: 3007
#
# Revision: 1
# Processed by: cddbd v1.5.1PL0 Copyright (c) Steve Scherf et al.
# Submitted via: dBpowerAMP V4.0
# Normalized: r0:TRMNUM
#
DISCID=910bbd0a
DTITLE=Album kts 457-58Eric Clapton - The Blues Concert
DYEAR=1995
DGENRE=Blues
TTITLE0=Someday After a While
TTITLE1=Crosscut Saw
TTITLE2=Have You Ever Loved a Woman
TTITLE3=I'm Tore Down
TTITLE4=Groaning The Blues
TTITLE5=Ain't Nobody's Business if I do
TTITLE6=Early In The Morning
TTITLE7=Driftin'
TTITLE8=Hoochie Coochie Man (Bonus track)
TTITLE9=Born Under A Bad Sign (Bonus track)
EXTD=Album Kts 457-58\nTwo Discs\nEnrique Acevedo
EXTT0=
EXTT1=
EXTT2=
EXTT3=
EXTT4=
EXTT5=
EXTT6=
EXTT7=
EXTT8=
EXTT9=
PLAYORDER=
